<svg xmlns="http://www.w3.org/2000/svg" viewBox="0 0 64 64"><defs><style>.cls-1{isolation:isolate;}.cls-2{fill:#c17e4e;}.cls-3{fill:#f47f87;}.cls-4{fill:#fff;}.cls-5,.cls-7,.cls-8{fill:none;}.cls-6{fill:red;}.cls-7,.cls-8{stroke:#000;stroke-width:2px;}.cls-7{stroke-miterlimit:10;}.cls-8{stroke-linecap:round;stroke-linejoin:round;}.cls-9{opacity:0.25;mix-blend-mode:multiply;}.cls-10{mix-blend-mode:overlay;}</style></defs><title>Icon Color</title><g class="cls-1"><g id="Layer_1" data-name="Layer 1"><g id="Vector"><path class="cls-2" d="M53.67,36.37v1.28a5.66,5.66,0,0,0-3.07-.86h-.35c-2.41,0-4.39,1.34-4.42,3,0-1.65-2-3-4.43-3h-.35c-2.45,0-4.43,1.37-4.43,3.05,0-1.68-2-3.05-4.44-3.05h-.35c-2.46,0-4.43,1.37-4.43,3.05,0-1.68-2-3.05-4.44-3.05h-.34c-2.47,0-4.44,1.37-4.44,3.05,0-1.68-2-3.05-4.43-3.05H13.4a5.73,5.73,0,0,0-2.52.55v-1a11.61,11.61,0,0,1,4.54-9.22,3.4,3.4,0,0,0,3.1,2h27a3.38,3.38,0,0,0,3.21-2.3A11.68,11.68,0,0,1,53.67,36.37Z"/><polygon class="cls-2" points="53.67 48.97 53.67 49.24 53.63 49.24 53.67 48.97"/><path class="cls-3" d="M19.72,61.7H12.54L9,41.16V39.83a2.92,2.92,0,0,1,1.92-2.49,5.73,5.73,0,0,1,2.52-.55h.35c2.44,0,4.43,1.37,4.43,3l.66,9.41Z"/><path class="cls-4" d="M28.48,61.7H19.72l-.88-12.46-.66-9.41c0-1.67,2-3,4.44-3H23c2.44,0,4.44,1.37,4.44,3l.47,9.41Z"/><path class="cls-3" d="M36.64,56.23V61.7H28.48l-.61-12.46-.47-9.41c0-1.67,2-3,4.43-3h.35c2.44,0,4.44,1.37,4.44,3v16.4Z"/><path class="cls-4" d="M45.83,39.78l-.43,9.46L44.83,61.7H36.66l0-5.47V39.83c0-1.67,2-3,4.43-3h.35C43.81,36.79,45.78,38.13,45.83,39.78Z"/><polygon class="cls-3" points="36.65 56.23 36.66 61.69 36.63 61.69 36.65 56.23"/><path class="cls-3" d="M55,39.83v1.33L53.67,49l0,.27L51.44,61.7H44.83l.57-12.46.43-9.46c0-1.65,2-3,4.42-3h.35a5.66,5.66,0,0,1,3.07.86A2.69,2.69,0,0,1,55,39.83Z"/><line class="cls-5" x1="36.69" y1="39.84" x2="36.65" y2="56.23"/><line class="cls-5" x1="20.27" y1="18" x2="30.56" y2="18.04"/><path class="cls-4" d="M48.91,25.76a3.18,3.18,0,0,1-.18,1.08,3.38,3.38,0,0,1-3.21,2.3h-27a3.38,3.38,0,0,1-1-6.6,3.5,3.5,0,0,1-.22-1.19,3.38,3.38,0,0,1,3-3.35,3.39,3.39,0,0,1,2.85-5.21h8.31a1.18,1.18,0,0,1-1-1.77l2.43-4.19,1-1.79a1.17,1.17,0,0,1,2,0l3.45,6a1.18,1.18,0,0,1-1,1.77h2.58a3.38,3.38,0,0,1,3.38,3.39A3.4,3.4,0,0,1,43.77,18a3.38,3.38,0,0,1,3,3.35,3.5,3.5,0,0,1-.22,1.19A3.38,3.38,0,0,1,48.91,25.76Z"/><path class="cls-6" d="M30.44,12.25a4.89,4.89,0,0,1-1.1.54H25.78a5.36,5.36,0,1,1,7.06-6L30.41,11A1.18,1.18,0,0,0,30.44,12.25Z"/><path class="cls-4" d="M17.57,2.38s4.28-.7,5.76,2.07"/></g><g id="Line"><path class="cls-7" d="M53.67,36.37v1.28a5.66,5.66,0,0,0-3.07-.86h-.35c-2.41,0-4.39,1.34-4.42,3,0-1.65-2-3-4.43-3h-.35c-2.45,0-4.43,1.37-4.43,3.05,0-1.68-2-3.05-4.44-3.05h-.35c-2.46,0-4.43,1.37-4.43,3.05,0-1.68-2-3.05-4.44-3.05h-.34c-2.47,0-4.44,1.37-4.44,3.05,0-1.68-2-3.05-4.43-3.05H13.4a5.73,5.73,0,0,0-2.52.55v-1a11.61,11.61,0,0,1,4.54-9.22,3.4,3.4,0,0,0,3.1,2h27a3.38,3.38,0,0,0,3.21-2.3A11.68,11.68,0,0,1,53.67,36.37Z"/><polygon class="cls-7" points="53.67 48.97 53.67 49.24 53.63 49.24 53.67 48.97"/><path class="cls-7" d="M19.72,61.7H12.54L9,41.16V39.83a2.92,2.92,0,0,1,1.92-2.49,5.73,5.73,0,0,1,2.52-.55h.35c2.44,0,4.43,1.37,4.43,3l.66,9.41Z"/><path class="cls-7" d="M28.48,61.7H19.72l-.88-12.46-.66-9.41c0-1.67,2-3,4.44-3H23c2.44,0,4.44,1.37,4.44,3l.47,9.41Z"/><path class="cls-7" d="M36.64,56.23V61.7H28.48l-.61-12.46-.47-9.41c0-1.67,2-3,4.43-3h.35c2.44,0,4.44,1.37,4.44,3v16.4Z"/><path class="cls-7" d="M45.83,39.78l-.43,9.46L44.83,61.7H36.66l0-5.47V39.83c0-1.67,2-3,4.43-3h.35C43.81,36.79,45.78,38.13,45.83,39.78Z"/><polygon class="cls-7" points="36.65 56.23 36.66 61.69 36.63 61.69 36.65 56.23"/><path class="cls-7" d="M55,39.83v1.33L53.67,49l0,.27L51.44,61.7H44.83l.57-12.46.43-9.46c0-1.65,2-3,4.42-3h.35a5.66,5.66,0,0,1,3.07.86A2.69,2.69,0,0,1,55,39.83Z"/><line class="cls-7" x1="45.83" y1="39.78" x2="45.83" y2="39.69"/><line class="cls-7" x1="36.69" y1="39.84" x2="36.65" y2="56.23"/><line class="cls-8" x1="20.27" y1="18" x2="30.56" y2="18.04"/><line class="cls-8" x1="46.55" y1="22.55" x2="38.31" y2="22.55"/><path class="cls-7" d="M48.91,25.76a3.18,3.18,0,0,1-.18,1.08,3.38,3.38,0,0,1-3.21,2.3h-27a3.38,3.38,0,0,1-1-6.6,3.5,3.5,0,0,1-.22-1.19,3.38,3.38,0,0,1,3-3.35,3.39,3.39,0,0,1,2.85-5.21h8.31a1.18,1.18,0,0,1-1-1.77l2.43-4.19,1-1.79a1.17,1.17,0,0,1,2,0l3.45,6a1.18,1.18,0,0,1-1,1.77h2.58a3.38,3.38,0,0,1,3.38,3.39A3.4,3.4,0,0,1,43.77,18a3.38,3.38,0,0,1,3,3.35,3.5,3.5,0,0,1-.22,1.19A3.38,3.38,0,0,1,48.91,25.76Z"/><path class="cls-8" d="M30.44,12.25a4.89,4.89,0,0,1-1.1.54H25.78a5.36,5.36,0,1,1,7.06-6L30.41,11A1.18,1.18,0,0,0,30.44,12.25Z"/><path class="cls-8" d="M17.57,2.38s4.28-.7,5.76,2.07"/></g><g id="Shadow" class="cls-9"><path d="M53.67,37.65a5.66,5.66,0,0,0-3.07-.86h-.35c-2.41,0-4.39,1.34-4.42,3h0c0-1.65,2-3,4.42-3h.35a5.66,5.66,0,0,1,3.07.86V36.37a11.68,11.68,0,0,0-4.94-9.53,3.18,3.18,0,0,0,.18-1.08,3.38,3.38,0,0,0-2.35-3.22,3.5,3.5,0,0,0,.22-1.19,3.38,3.38,0,0,0-3-3.35,3.4,3.4,0,0,0,.53-1.82,3.38,3.38,0,0,0-3.38-3.39H38.34a1.18,1.18,0,0,0,1-1.77L35.91,5a1.17,1.17,0,0,0-2,0l-1,1.79a5.36,5.36,0,0,0-9.51-2.38c-1.49-2.77-5.76-2.07-5.76-2.07l5.76,2.07a5.35,5.35,0,0,0,2.45,8.34H23.12l-.24,0A3.36,3.36,0,0,1,26,16.18,3.4,3.4,0,0,1,25.5,18a3.38,3.38,0,0,1,3,3.35,3.5,3.5,0,0,1-.22,1.19,3.38,3.38,0,0,1,2.35,3.22,3.18,3.18,0,0,1-.18,1.08,11.68,11.68,0,0,1,4.94,9.53v1.28a5.66,5.66,0,0,0-3.07-.86h0a5.63,5.63,0,0,1,3.06.86,2.67,2.67,0,0,1,1.37,2.18v1.33L35.39,49v.27h0L33.17,61.7h3.46v0h14.8l2.19-12.46h0V49L55,41.16V39.83A2.69,2.69,0,0,0,53.67,37.65ZM29.34,12.79a4.89,4.89,0,0,0,1.1-.54,1.17,1.17,0,0,0,1,.54Zm12.06,24h-.35a5.63,5.63,0,0,0-2.94.79,5.54,5.54,0,0,1,2.94-.79h.35c2.11,0,3.88,1,4.32,2.39C45.28,37.82,43.51,36.79,41.4,36.79Z"/><path d="M27.56,39.78h0c0-1.65,2-3,4.42-3h-.06C29.54,36.82,27.59,38.14,27.56,39.78Z"/><polygon points="18.36 61.69 18.37 57.6 18.37 56.23 18.36 61.7 18.38 61.7 18.38 61.69 18.36 61.69"/></g><g id="Highligth" class="cls-10"><path class="cls-4" d="M25.09,36.79h-.35a6.13,6.13,0,0,0-.87.07h0a6.11,6.11,0,0,1,.86-.07h.35a5.14,5.14,0,0,1,3.76,1.45A5.08,5.08,0,0,0,25.09,36.79Z"/><polygon class="cls-4" points="47.98 61.69 47.99 57.6 47.98 56.23 47.97 61.7 48 61.7 48 61.69 47.98 61.69"/><path class="cls-4" d="M20.31,39.83a2.91,2.91,0,0,1,1.91-2.49,5.66,5.66,0,0,1,1.65-.48h0a5.23,5.23,0,0,0-1.64.48v-.51a5,5,0,0,0-3.28,1.31,5.06,5.06,0,0,1,3.28-1.32v-.45a11.61,11.61,0,0,1,4.54-9.22,3.4,3.4,0,0,1,2.06-4.61,3.5,3.5,0,0,1-.22-1.19,3.38,3.38,0,0,1,3-3.35,3.39,3.39,0,0,1,2.85-5.21h2.66a5.35,5.35,0,0,1-2.47-8.31,1.12,1.12,0,0,0-.78.56l-1,1.79a5.36,5.36,0,0,0-9.51-2.38c-1.49-2.77-5.76-2.07-5.76-2.07l5.76,2.07a5.35,5.35,0,0,0,2.45,8.34H23.12A3.39,3.39,0,0,0,20.27,18a3.38,3.38,0,0,0-3,3.35,3.5,3.5,0,0,0,.22,1.19,3.4,3.4,0,0,0-2.06,4.61,11.61,11.61,0,0,0-4.54,9.22v1a5.73,5.73,0,0,1,2.52-.55h.35a5.1,5.1,0,0,1,3.76,1.45,5.16,5.16,0,0,0-3.76-1.45H13.4a5.73,5.73,0,0,0-2.52.55A2.92,2.92,0,0,0,9,39.83v1.33L12.54,61.7H23.88L20.31,41.16ZM30.44,12.25a1.17,1.17,0,0,0,1,.54H29.34A4.89,4.89,0,0,0,30.44,12.25ZM18.18,39.83h0a2.51,2.51,0,0,1,0-.27A2.51,2.51,0,0,0,18.18,39.83Z"/></g></g></g></svg>